<svg width="144" height="40" viewBox="0 0 144 40" fill="none" xmlns="http://www.w3.org/2000/svg">
<path d="M53.4956 25.3145C52.3957 29.892 48.0574 31.9811 43.658 31.9811C42.1916 31.9811 40.8168 31.7968 39.5947 31.4281L49.6461 25.3145H53.4956Z" fill="#083746"/>
<path d="M71.3986 12.043V18.2795C70.4515 17.7573 69.5655 17.6344 68.4962 17.6344C64.6773 17.6344 63.7302 20.1843 63.7302 23.5023V31.3364H56.8867V20.8909L71.3986 12.043Z" fill="#083746"/>
<path d="M80.8389 11.8896H73.9648V31.3367H80.8389V11.8896Z" fill="#083746"/>
<path d="M118.142 18.9554V31.3363H111.268V22.0583C111.268 20.0613 111.329 16.7434 108.427 16.7434C105.249 16.7434 105.158 19.7541 105.158 22.0583V31.3363H98.2836V22.0583C98.2836 19.9077 98.2836 16.5898 95.2285 16.5898C92.1734 16.5898 92.1734 19.877 92.1734 22.0583V31.3363H85.2993V11.8893H92.1734V14.3163H92.2345C93.8537 12.1658 95.8395 11.2441 98.3447 11.2441C101.125 11.2441 103.538 12.3809 104.944 14.9615C106.257 12.5345 108.854 11.2441 111.512 11.2441C116.431 11.2441 118.142 14.4699 118.142 18.9554Z" fill="#083746"/>
<path d="M136.931 11.8893V13.7941C135.495 12.1044 133.173 11.2441 130.943 11.2441C125.199 11.2441 121.258 16.006 121.258 21.5974C121.258 27.1888 125.291 31.9815 131.035 31.9815C133.296 31.9815 135.679 31.1213 136.87 29.1858H136.931V31.3363H143.775V11.8893H136.931ZM132.746 25.9907C129.965 25.9907 128.346 24.0859 128.346 21.6282C128.346 19.2319 129.965 17.2349 132.746 17.2349C135.526 17.2349 137.145 19.2319 137.145 21.6282C137.145 24.1166 135.526 25.9907 132.746 25.9907Z" fill="#083746"/>
<path d="M77.3864 0H19.8889C8.89042 0 0 8.97081 0 20C0 31.0599 8.92098 40 19.8889 40C23.7384 40 27.3434 38.894 30.3985 36.9892L39.5945 31.3979C35.3478 30.1383 32.476 26.7896 32.476 21.5975C32.476 15.1152 36.8754 11.2135 43.169 11.2135C49.8903 11.2135 53.7703 15.3917 53.7703 22.0277V22.7343H39.3501C39.3501 25.53 40.8165 27.0661 43.6578 27.0661C45.1243 27.0661 46.1936 26.5745 46.9268 25.2842H49.6458L56.917 20.8602V11.8894H63.73V15.0845H63.7911C65.1048 12.6882 67.3656 11.6436 70.0541 11.6436H71.3678V12.043L79.2195 7.25038C79.8 6.91244 80.3193 6.45161 80.6554 5.8679C80.9915 5.28418 81.2053 4.60829 81.2053 3.87097C81.2359 1.72043 79.525 0 77.3864 0ZM22.0886 31.3364H17.7197L7.57672 11.8894H15.2756L19.9194 21.8433L24.5021 11.8894H32.2011L22.0886 31.3364Z" fill="#80E8CC"/>
<path d="M47.3852 18.8017H39.4419C39.8696 16.8048 41.5194 15.7295 43.5052 15.7295C45.3383 15.7295 47.0492 16.9276 47.3852 18.8017Z" fill="#80E8CC"/>
<path d="M32.1704 11.8896L22.0885 31.3367H17.7197L7.57666 11.8896H15.2756L19.8888 21.8743L24.5021 11.8896H32.1704Z" fill="#0F6E8C"/>
<path d="M53.7396 22.0583C53.7396 15.4223 49.8595 11.2441 43.1383 11.2441C36.8447 11.2441 32.4453 15.1458 32.4453 21.6282C32.4453 26.8202 35.2866 30.1689 39.5638 31.4285L49.6151 25.3148H46.8961C46.1323 26.6051 45.0935 27.0967 43.6271 27.0967C40.7858 27.0967 39.3194 25.5913 39.3194 22.7649H53.7396V22.0583ZM39.4416 18.8017C39.8693 16.8048 41.519 15.7295 43.5049 15.7295C45.338 15.7295 47.0488 16.9277 47.3849 18.8017H39.4416Z" fill="#0F6E8C"/>
<path d="M71.3986 11.6436V12.0429L56.8867 20.8909V11.8893H63.7302V15.0844H63.7913C65.105 12.6881 67.3658 11.6436 70.0543 11.6436H71.3986Z" fill="#0F6E8C"/>
</svg>
